#!OML:ASF X:\für Bonn\!DataBase\2005_08_10_Bjorn_Final\c3d\bjorn.ASF
:FULLY-SPECIFIED
:DEGREES
79
root 8.67313 15.7296 1.76073 -202.788 82.6226 -206.081
lowerback 32.461 1.32744 2.47828
upperback 18.9706 5.19299 -2.34995
thorax 4.47141 4.16618 -4.97302
lowerneck -1.75518 -8.04206 2.16281
upperneck 5.33767 -11.0393 5.6273
head 2.20358 -5.30109 1.1351
rclavicle -1.90833e-014 -1.98785e-014
rhumerus 19.6331 -1.84304 -72.1021
rradius 26.915
rwrist -1.06967
rhand -13.3371 13.3416
rfingers 7.12502
rthumb 12.7682 -16.248
lclavicle -1.90833e-014 -1.98785e-014
lhumerus 16.1131 -32.4826 73.482
lradius 34.0694
lwrist -12.3319
lhand -26.1545 -10.5635
lfingers 7.12502
lthumb 0.396559 19.4159
rfemur -47.9282 -10.7802 12.0529
rtibia 89.2626
rfoot -25.4489 22.7001
rtoes -6.45841
lfemur -57.8673 9.94947 -21.7106
ltibia 79.005
lfoot -16.8526 -8.08193
ltoes -8.97934
80
root 8.69982 15.5631 1.73349 -203.878 82.541 -207.014
lowerback 32.8172 1.2649 2.54142
upperback 19.0899 5.18139 -2.25903
thorax 4.46969 4.17958 -4.91839
lowerneck -2.09078 -8.11062 2.04336
upperneck 5.47222 -11.1633 5.85032
head 2.33393 -5.34915 1.20283
rclavicle -3.49861e-014 5.48646e-014
rhumerus 20.0136 -1.94968 -71.6703
rradius 26.4109
rwrist -1.04064
rhand -13.3825 13.2109
rfingers 7.12502
rthumb 12.7245 -16.3815
lclavicle -3.49861e-014 5.48646e-014
lhumerus 17.1665 -32.9081 72.5976
lradius 34.4607
lwrist -12.1051
lhand -25.9564 -10.2716
lfingers 7.12502
lthumb 0.587851 19.7074
rfemur -48.7825 -11.0139 11.5995
rtibia 91.2286
rfoot -25.367 23.2627
rtoes -6.53715
lfemur -58.7858 10.0779 -21.9705
ltibia 80.8947
lfoot -17.5006 -8.25608
ltoes -8.72092
81
root 8.7263 15.3936 1.70768 -204.846 82.4573 -207.781
lowerback 33.1898 1.20886 2.58466
upperback 19.2184 5.17689 -2.13196
thorax 4.47026 4.19332 -4.81673
lowerneck -2.36808 -8.16383 1.91512
upperneck 5.55765 -11.2597 6.04634
head 2.43673 -5.38669 1.26794
rclavicle -2.70347e-014 1.03368e-014
rhumerus 20.3637 -2.00559 -71.1902
rradius 25.9417
rwrist -1.00377
rhand -13.4194 13.1276
rfingers 7.12502
rthumb 12.6889 -16.4669
lclavicle -2.70347e-014 1.03368e-014
lhumerus 18.1485 -33.1956 71.7916
lradius 34.8829
lwrist -11.9291
lhand -25.6313 -10.0936
lfingers 7.12502
lthumb 0.901807 19.8842
rfemur -49.5894 -11.2752 11.1588
rtibia 93.1909
rfoot -25.3663 23.7345
rtoes -7.15542
lfemur -59.6696 10.226 -22.2022
ltibia 82.7861
lfoot -18.086 -8.46772
ltoes -8.19864
82
root 8.75259 15.2202 1.68039 -205.744 82.3613 -208.444
lowerback 33.5434 1.12209 2.69081
upperback 19.3758 5.15851 -2.00834
thorax 4.51462 4.21023 -4.745
lowerneck -2.68481 -8.23254 1.76635
upperneck 5.62908 -11.3764 6.21756
head 2.54296 -5.43539 1.32638
rclavicle -3.57812e-014 4.29375e-014
rhumerus 20.713 -2.07168 -70.6725
rradius 25.5192
rwrist -1.06228
rhand -13.4434 12.9959
rfingers 7.12502
rthumb 12.6658 -16.6001
lclavicle -3.57812e-014 4.29375e-014
lhumerus 19.1304 -33.4288 71.0033
lradius 35.3102
lwrist -11.8154
lhand -25.2718 -9.88598
lfingers 7.12502
lthumb 1.2491 20.0901
rfemur -50.3364 -11.5663 10.6859
rtibia 95.1362
rfoot -25.3254 24.2814
rtoes -7.47029
lfemur -60.5402 10.3714 -22.4414
ltibia 84.6869
lfoot -18.7247 -8.58014
ltoes -8.35537
83
root 8.78002 15.045 1.65458 -206.66 82.2651 -209.126
lowerback 33.9195 1.05772 2.75947
upperback 19.4971 5.15204 -1.85552
thorax 4.5085 4.22291 -4.62889
lowerneck -2.91192 -8.30521 1.58629
upperneck 5.6713 -11.4888 6.3647
head 2.62428 -5.48564 1.38689
rclavicle -1.11319e-014 2.8625e-014
rhumerus 21.0065 -2.14986 -70.1586
rradius 25.1472
rwrist -1.12889
rhand -13.4469 12.8402
rfingers 7.12502
rthumb 12.6624 -16.756
lclavicle -1.11319e-014 2.8625e-014
lhumerus 20.0208 -33.6101 70.2859
lradius 35.7334
lwrist -11.7282
lhand -24.9647 -9.78844
lfingers 7.12502
lthumb 1.54563 20.1857
rfemur -51.0862 -11.8754 10.1986
rtibia 97.0832
rfoot -25.3475 24.8098
rtoes -8.02513
lfemur -61.4051 10.5294 -22.6743
ltibia 86.5846
lfoot -19.3303 -8.69483
ltoes -8.36126
84
root 8.80673 14.8651 1.62771 -207.845 82.1669 -210.11
lowerback 34.2108 0.999243 2.7902
upperback 19.6335 5.14053 -1.71476
thorax 4.54853 4.23099 -4.49876
lowerneck -3.16061 -8.35405 1.42828
upperneck 5.71479 -11.5688 6.47626
head 2.70559 -5.51981 1.43278
rclavicle 4.77083e-014 2.94201e-014
rhumerus 21.3182 -2.27026 -69.6803
rradius 24.8034
rwrist -1.18128
rhand -13.4019 12.7344
rfingers 7.12502
rthumb 12.7058 -16.859
lclavicle 4.77083e-014 2.94201e-014
lhumerus 20.8628 -33.7812 69.5456
lradius 36.2437
lwrist -11.5447
lhand -24.6399 -9.63698
lfingers 7.12502
lthumb 1.85931 20.3347
rfemur -51.8936 -12.2167 9.64005
rtibia 99.0426
rfoot -25.3371 25.4539
rtoes -8.58472
lfemur -62.3275 10.6859 -22.9602
ltibia 88.5014
lfoot -19.8963 -8.80197
ltoes -8.37108
85
root 8.83564 14.6784 1.60185 -209.225 82.049 -211.349
lowerback 34.3885 0.949977 2.8025
upperback 19.7635 5.1263 -1.60329
thorax 4.62276 4.23595 -4.38375
lowerneck -3.41302 -8.4017 1.27184
upperneck 5.79442 -11.6502 6.61903
head 2.80282 -5.55169 1.48752
rclavicle -1.59028e-014 7.95139e-014
rhumerus 21.5736 -2.45965 -69.2692
rradius 24.5098
rwrist -1.15865
rhand -13.396 12.667
rfingers 7.12502
rthumb 12.7115 -16.9261
lclavicle -1.59028e-014 7.95139e-014
lhumerus 21.6696 -33.9443 68.7716
lradius 36.7354
lwrist -11.3453
lhand -24.4718 -9.57633
lfingers 7.12502
lthumb 2.02172 20.3938
rfemur -52.7813 -12.6287 9.03232
rtibia 101.025
rfoot -25.3386 26.0758
rtoes -9.16793
lfemur -63.34 10.8474 -23.3061
ltibia 90.4375
lfoot -20.4228 -8.89006
ltoes -8.54007
86
root 8.86365 14.4873 1.57517 -210.694 81.9145 -212.667
lowerback 34.5263 0.872887 2.82986
upperback 19.9123 5.08426 -1.53159
thorax 4.73428 4.23397 -4.30803
lowerneck -3.74115 -8.42992 1.11991
upperneck 5.94716 -11.7135 6.77632
head 2.93998 -5.56916 1.54243
rclavicle -3.81667e-014 -1.59028e-015
rhumerus 21.8896 -2.83483 -69.0417
rradius 24.164
rwrist -0.951663
rhand -13.348 12.6835
rfingers 7.12502
rthumb 12.7577 -16.9067
lclavicle -3.81667e-014 -1.59028e-015
lhumerus 22.4513 -34.0613 67.9465
lradius 37.2485
lwrist -11.1141
lhand -24.2612 -9.50005
lfingers 7.12502
lthumb 2.22508 20.4681
rfemur -53.6686 -13.0915 8.36973
rtibia 103.022
rfoot -25.4257 26.7046
rtoes -10.1864
lfemur -64.3647 11.0117 -23.6806
ltibia 92.3881
lfoot -20.9582 -8.92667
ltoes -8.653
87
root 8.8919 14.2936 1.54971 -212.254 81.76 -214.056
lowerback 34.6773 0.795751 2.82609
upperback 20.0529 5.03325 -1.46175
thorax 4.82957 4.22403 -4.21683
lowerneck -4.05839 -8.46141 0.967746
upperneck 6.12895 -11.7786 6.88935
head 3.08284 -5.58771 1.58331
rclavicle 2.8625e-014 -5.96354e-014
rhumerus 22.1689 -3.21282 -68.8233
rradius 23.8553
rwrist -0.758145
rhand -13.2556 12.7947
rfingers 7.12502
rthumb 12.8468 -16.7899
lclavicle 2.8625e-014 -5.96354e-014
lhumerus 23.1806 -34.1594 67.0902
lradius 37.7749
lwrist -10.8916
lhand -24.0956 -9.46964
lfingers 7.12502
lthumb 2.38503 20.4968
rfemur -54.5163 -13.573 7.64746
rtibia 105
rfoot -25.4113 27.4099
rtoes -10.9475
lfemur -65.368 11.1668 -24.0672
ltibia 94.3283
lfoot -21.4057 -9.02105
ltoes -8.5786
88
root 8.92025 14.0966 1.52373 -213.782 81.5996 -215.348
lowerback 34.8818 0.699636 2.84853
upperback 20.2019 4.97404 -1.41792
thorax 4.91985 4.21762 -4.16633
lowerneck -4.32912 -8.48122 0.876547
upperneck 6.23495 -11.8268 7.02461
head 3.18883 -5.59929 1.62573
rclavicle -6.99722e-014 1.98785e-014
rhumerus 22.454 -3.66078 -68.6844
rradius 23.5368
rwrist -0.539835
rhand -13.1878 12.9253
rfingers 7.12502
rthumb 12.9122 -16.6552
lclavicle -6.99722e-014 1.98785e-014
lhumerus 23.8764 -34.2322 66.2147
lradius 38.3069
lwrist -10.739
lhand -23.9242 -9.43038
lfingers 7.12502
lthumb 2.55058 20.5341
rfemur -55.282 -14.0934 6.8915
rtibia 106.966
rfoot -25.4833 28.1149
rtoes -11.917
lfemur -66.3085 11.3517 -24.4544
ltibia 96.2658
lfoot -21.8535 -9.02848
ltoes -8.94832
89
root 8.95032 13.9014 1.49759 -215.254 81.4506 -216.516
lowerback 35.1375 0.595658 2.85083
upperback 20.354 4.90412 -1.34226
thorax 4.99199 4.20222 -4.07096
lowerneck -4.55034 -8.50648 0.743444
upperneck 6.32785 -11.871 7.07811
head 3.27789 -5.61451 1.65127
rclavicle 1.90833e-014 -8.74653e-015
rhumerus 22.7276 -4.10132 -68.5469
rradius 23.2607
rwrist -0.285457
rhand -13.0518 13.064
rfingers 7.12502
rthumb 13.0432 -16.5082
lclavicle 1.90833e-014 -8.74653e-015
lhumerus 24.4823 -34.2289 65.4343
lradius 38.8052
lwrist -10.6095
lhand -23.8624 -9.43765
lfingers 7.12502
lthumb 2.61028 20.5261
rfemur -55.9184 -14.6395 6.09872
rtibia 108.88
rfoot -25.4804 28.9379
rtoes -12.5957
lfemur -67.1489 11.5529 -24.7979
ltibia 98.1824
lfoot -22.2909 -9.11174
ltoes -9.00929
90
root 8.97997 13.7043 1.4727 -216.432 81.3403 -217.363
lowerback 35.4338 0.493352 2.91912
upperback 20.4923 4.8558 -1.25477
thorax 5.04132 4.20235 -4.00532
lowerneck -4.7127 -8.54312 0.673579
upperneck 6.36392 -11.9252 7.08605
head 3.32864 -5.63834 1.65462
rclavicle 2.54444e-014 6.36111e-015
rhumerus 22.978 -4.58407 -68.4164
rradius 22.9548
rwrist -0.0588628
rhand -13.0003 13.2154
rfingers 7.12502
rthumb 13.0929 -16.3536
lclavicle 2.54444e-014 6.36111e-015
lhumerus 25.0752 -34.2583 64.6522
lradius 39.2711
lwrist -10.5013
lhand -23.7728 -9.4861
lfingers 7.12502
lthumb 2.69676 20.4766
rfemur -56.5177 -15.2139 5.3422
rtibia 110.771
rfoot -25.5481 29.7134
rtoes -13.6759
lfemur -67.9764 11.7993 -25.0687
ltibia 100.101
lfoot -22.6723 -9.19708
ltoes -9.13979
